:version 1.10
:name ASF
:units
  mass 1
  length 1
  angle deg
:documentation
  ASF file generated by Kaydara
:root
  axis xyz
  order  tx ty tz rx ry rz
  position 0 0 0
  orientation 0 0 0
:bonedata
  begin
    id 1
    name SpineDummy
    direction 0.999998 -0.00179978 1.38929e-006
    length 3.60008
    axis 0 0 0 xyz
  end
  begin
    id 2
    name Spine
    direction 0.964365 0.262802 0.0305839
    length 8.13928
    axis 1.33928 -1.75354 15.2838 xyz
    dof rx ry rz
  end
  begin
    id 3
    name Spine1
    direction 0.811168 0.572065 0.12144
    length 7.14954
    axis 2.2224 -6.9761 35.2157 xyz
    dof rx ry rz
  end
  begin
    id 4
    name Neck
    direction 0 0 0
    length 0
    axis 2.2224 -6.9761 35.2157 xyz
    dof rx ry rz
  end
  begin
    id 5
    name HeadDummy
    direction 0.810939 0.572387 0.121455
    length 3.55534
    axis 2.2224 -6.9761 35.2157 xyz
  end
  begin
    id 6
    name Head
    direction 0.998226 -0.000232542 0.0595419
    length 7.35666
    axis -3.03688 -3.41352 -0.0133467 xyz
    dof rx ry rz
  end
  begin
    id 7
    name R_ClavicleDummy
    direction 0.531669 -0.194489 -0.824319
    length 2.49392
    axis 2.2224 -6.9761 35.2157 xyz
  end
  begin
    id 8
    name R_Clavicle
    direction -0.155119 0.0480802 -0.986725
    length 4.485
    axis -54.2764 80.6538 162.779 xyz
    dof rx ry rz
  end
  begin
    id 9
    name R_UpperArm
    direction -0.955567 0.200068 -0.216484
    length 10.1122
    axis -72.9943 12.5026 168.175 xyz
    dof rx ry rz
  end
  begin
    id 10
    name R_Forearm
    direction -0.61433 0.385743 0.688332
    length 9.39148
    axis -117.015 -43.4982 147.875 xyz
    dof rx ry rz
  end
  begin
    id 11
    name R_Hand
    direction -0.699429 0.0170333 0.714499
    length 3.66324
    axis -45.0303 -36.7097 175.478 xyz
    dof rx ry rz
  end
  begin
    id 12
    name L_ClavicleDummy
    direction 0.40287 -0.36502 0.839319
    length 2.49392
    axis 2.2224 -6.9761 35.2157 xyz
  end
  begin
    id 13
    name L_Clavicle
    direction -0.231271 -0.0726419 0.970174
    length 4.485
    axis 18.4357 -75.9711 -162.563 xyz
    dof rx ry rz
  end
  begin
    id 14
    name L_UpperArm
    direction -0.917494 0.144359 0.370629
    length 10.1122
    axis 56.0417 -21.7544 171.058 xyz
    dof rx ry rz
  end
  begin
    id 15
    name L_Forearm
    direction -0.496786 0.615074 -0.612281
    length 9.39148
    axis 89.8094 37.7546 128.927 xyz
    dof rx ry rz
  end
  begin
    id 16
    name L_Hand
    direction -0.409932 0.64962 -0.640274
    length 3.66324
    axis -0.424369 32.133 128.52 xyz
    dof rx ry rz
  end
  begin
    id 17
    name L_ThighDummy
    direction -1.84081e-006 1.87549e-006 1
    length 3.13049
    axis 0 0 0 xyz
  end
  begin
    id 18
    name L_Thigh
    direction -0.947739 0.307978 0.083308
    length 17.9961
    axis 173.219 -4.77873 161.998 xyz
    dof rx ry rz
  end
  begin
    id 19
    name L_Calf
    direction -0.728814 -0.684427 0.0197583
    length 13.3367
    axis 167.331 -1.13214 -136.799 xyz
    dof rx ry rz
  end
  begin
    id 20
    name L_Foot
    direction -0.9028 0.418719 0.0981191
    length 5.8674
    axis 163.436 11.5135 -155.37 xyz
    dof rx ry rz
  end
  begin
    id 21
    name L_Toe0
    direction -0.35341 0.886259 0.299411
    length 4.75286
    axis 169.316 -17.4222 111.74 xyz
    dof rx ry rz
  end
  begin
    id 22
    name R_ThighDummy
    direction 9.32778e-007 -8.82053e-007 -1
    length 3.13049
    axis 0 0 0 xyz
  end
  begin
    id 23
    name R_Thigh
    direction -0.925064 0.37528 -0.0585023
    length 17.9961
    axis -178.698 3.35385 157.919 xyz
    dof rx ry rz
  end
  begin
    id 24
    name R_Calf
    direction -0.68969 -0.718776 -0.0876886
    length 13.3367
    axis -160.504 5.03065 -133.817 xyz
    dof rx ry rz
  end
  begin
    id 25
    name R_Foot
    direction -0.857405 0.418858 -0.299022
    length 5.8674
    axis -161.328 4.38911 -154.413 xyz
    dof rx ry rz
  end
  begin
    id 26
    name R_Toe0
    direction -0.100745 0.952789 -0.286433
    length 4.75286
    axis 171.683 16.6445 96.0359 xyz
    dof rx ry rz
  end
:hierarchy
  begin
    root SpineDummy L_ThighDummy R_ThighDummy
    SpineDummy Spine
    Spine Spine1
    Spine1 Neck
    Neck HeadDummy R_ClavicleDummy L_ClavicleDummy
    HeadDummy Head
    R_ClavicleDummy R_Clavicle
    R_Clavicle R_UpperArm
    R_UpperArm R_Forearm
    R_Forearm R_Hand
    L_ClavicleDummy L_Clavicle
    L_Clavicle L_UpperArm
    L_UpperArm L_Forearm
    L_Forearm L_Hand
    L_ThighDummy L_Thigh
    L_Thigh L_Calf
    L_Calf L_Foot
    L_Foot L_Toe0
    R_ThighDummy R_Thigh
    R_Thigh R_Calf
    R_Calf R_Foot
    R_Foot R_Toe0
  end

:SAMPLES-PER-SECOND 30
:FULLY-SPECIFIED
:DEGREES
182
root  -0.946438 31.9687 71.522 -68.9954 -1.54326 85.7744
Spine  -4.79616 -6.42482 -14.7145
Spine1  -1.57138 27.55 9.96061
Neck  3.97569e-016 0 -2.38542e-015
Head  12.6783 -12.772 23.2177
R_Clavicle  0.430606 -19.9077 2.51849
R_UpperArm  16.5501 6.22264 31.3194
R_Forearm  24.615 -13.2882 11.284
R_Hand  -0.198074 9.76496 -13.599
L_Clavicle  -0.465051 16.4458 0.105889
L_UpperArm  -3.78666 18.6594 26.9557
L_Forearm  -9.93895 27.5369 35.3912
L_Hand  -0.19238 -1.3729 -5.33391
L_Thigh  -11.9239 2.19249 -12.3571
L_Calf  -16.8895 0.172039 -1.55802
L_Foot  -0.4347 0.463585 -2.43964
L_Toe0  -5.74203 0.420717 -2.54944
R_Thigh  2.85153 -0.722771 -5.94043
R_Calf  2.28611 5.40487 17.1076
R_Foot  -0.285733 1.7322 7.81809
R_Toe0  -1.64045 -0.270757 -17.2393
183
root  -0.525873 31.5993 71.0898 -71.5836 -2.6942 87.9093
Spine  -4.4819 -3.71664 -13.6524
Spine1  -0.659317 26.5034 11.593
Neck  3.97569e-016 0 -2.38542e-015
Head  12.8926 -12.6921 20.6841
R_Clavicle  0.423691 -20.0973 2.2
R_UpperArm  12.0337 7.62753 26.7135
R_Forearm  22.0926 -11.9208 10.069
R_Hand  -0.157759 8.69716 -12.7912
L_Clavicle  -0.468487 16.594 0.238977
L_UpperArm  0.190872 19.8626 26.2933
L_Forearm  -1.73797 25.7018 33.8307
L_Hand  -0.313588 1.4855 -5.01452
L_Thigh  -6.82973 4.23131 -6.70111
L_Calf  -15.3871 1.62949 -12.3154
L_Foot  -0.17002 8.93573 -8.71594
L_Toe0  -7.61432 0.752726 -1.38543
R_Thigh  1.2192 3.45707 -5.80866
R_Calf  3.05848 4.83299 15.3084
R_Foot  -0.657863 1.01506 8.81218
R_Toe0  -0.550343 -0.269185 -16.6196
184
root  -0.184625 31.3034 70.5196 -73.9764 -4.61325 89.0104
Spine  -4.22562 -2.2644 -12.3209
Spine1  0.208366 25.0287 13.9982
Neck  3.97569e-016 0 -2.38542e-015
Head  13.175 -12.0772 18.581
R_Clavicle  0.416204 -19.3517 1.90928
R_UpperArm  4.50485 9.99686 20.0157
R_Forearm  19.4203 -11.8192 9.97958
R_Hand  -0.280542 7.53825 -13.0929
L_Clavicle  -0.466662 16.5437 0.335478
L_UpperArm  2.66022 20.9699 25.5058
L_Forearm  3.21579 25.1422 32.8227
L_Hand  -0.357625 2.4468 -4.97153
L_Thigh  -1.41114 5.12424 -3.59564
L_Calf  -9.84944 2.66865 -20.2317
L_Foot  0.0322691 11.4691 -9.33188
L_Toe0  -1.42175 0.0433895 -5.02402
R_Thigh  0.0224887 6.5434 -7.43206
R_Calf  3.70707 4.36646 13.8497
R_Foot  -1.09091 0.306133 10.2295
R_Toe0  0.568646 -0.287565 -15.9835
185
root  0.0534703 31.2256 69.8104 -76.5752 -6.28833 89.5001
Spine  -3.73555 -0.832983 -11.7771
Spine1  0.764509 21.8812 15.8414
Neck  3.97569e-016 0 -2.38542e-015
Head  12.6245 -11.0144 18.35
R_Clavicle  0.406086 -18.2023 1.70777
R_UpperArm  -4.17064 11.822 13.0796
R_Forearm  17.7985 -12.7508 10.8049
R_Hand  -0.581746 7.26427 -15.4153
L_Clavicle  -0.462626 16.3582 0.0843039
L_UpperArm  5.4854 21.8266 25.1703
L_Forearm  2.76942 25.3015 33.1128
L_Hand  -0.191751 2.12389 -2.74881
L_Thigh  2.50916 5.40139 -1.95227
L_Calf  -4.15584 3.20119 -24.4412
L_Foot  0.743752 9.60952 -5.66972
L_Toe0  0.712636 0.029006 -6.25625
R_Thigh  -1.82921 8.65059 -10.1537
R_Calf  4.10223 4.3658 13.8582
R_Foot  -1.46014 -0.229782 11.5293
R_Toe0  0.39992 -0.283967 -16.0871
186
root  0.202761 31.3442 69.0399 -79.0136 -6.86847 89.9272
Spine  -2.95945 1.1005 -12.1574
Spine1  0.92046 17.6278 15.7595
Neck  3.97569e-016 0 -2.38542e-015
Head  11.0245 -10.0758 20.1774
R_Clavicle  0.391987 -17.0625 1.50899
R_UpperArm  -11.4287 12.4023 8.03307
R_Forearm  16.7824 -14.0915 12.0073
R_Hand  -0.79861 7.89847 -17.3156
L_Clavicle  -0.46476 16.3811 -0.338067
L_UpperArm  7.14294 22.4551 25.7775
L_Forearm  1.80668 26.1737 34.2832
L_Hand  -0.021593 2.04683 -0.210052
L_Thigh  4.36147 5.48471 0.12397
L_Calf  -2.13278 3.27628 -25.0682
L_Foot  1.25669 8.15344 -2.74926
L_Toe0  0.505156 0.034446 -6.1361
R_Thigh  -3.79416 9.86228 -12.6803
R_Calf  3.79997 4.82639 15.3499
R_Foot  -1.63994 -0.616326 11.72
R_Toe0  0.530448 -0.28833 -15.9603
187
root  0.287197 31.6731 68.2401 -80.5278 -6.5499 89.9346
Spine  -1.99108 2.59552 -12.7587
Spine1  1.0278 13.5948 14.0204
Neck  3.97569e-016 0 -2.38542e-015
Head  8.43983 -9.28775 23.2531
R_Clavicle  0.373445 -16.0851 1.28304
R_UpperArm  -15.5278 12.081 5.45499
R_Forearm  15.7895 -15.5658 13.3522
R_Hand  -0.731006 8.30022 -16.91
L_Clavicle  -0.476625 16.6734 -0.718837
L_UpperArm  5.72552 22.793 27.0253
L_Forearm  3.54711 27.8951 35.3674
L_Hand  0.0342715 2.52979 0.587414
L_Thigh  4.62308 5.00715 2.87712
L_Calf  -3.82931 2.94219 -22.4372
L_Foot  1.51225 8.72721 -2.25961
L_Toe0  0.505156 0.034446 -6.1361
R_Thigh  -4.68669 9.76102 -15.1602
R_Calf  2.96108 5.80544 18.557
R_Foot  -1.789 -1.26778 10.8955
R_Toe0  0.491861 -0.28883 -15.4689
188
root  0.326142 32.1442 67.4161 -81.0691 -5.93284 89.4557
Spine  -0.889294 3.49956 -13.1622
Spine1  1.31134 9.9496 11.6617
Neck  3.97569e-016 0 -2.38542e-015
Head  5.09746 -8.25481 26.6612
R_Clavicle  0.360672 -15.2337 1.18897
R_UpperArm  -16.7135 11.2848 4.5964
R_Forearm  16.1852 -17.2602 14.9314
R_Hand  -0.54954 8.08031 -15.4549
L_Clavicle  -0.489878 16.9446 -1.12108
L_UpperArm  2.44502 22.6988 28.4216
L_Forearm  5.47905 29.6794 36.0068
L_Hand  0.00364043 2.62038 0.171057
L_Thigh  3.76894 4.14086 5.42829
L_Calf  -6.00345 2.20086 -16.7268
L_Foot  1.6557 9.1777 -2.10451
L_Toe0  0.505156 0.034446 -6.1361
R_Thigh  -4.55661 8.71176 -18.083
R_Calf  2.21671 7.23043 23.3487
R_Foot  -2.02521 -2.41773 9.41585
R_Toe0  0.0935889 -0.274204 -14.8151
189
root  0.327562 32.5796 66.597 -81.2489 -5.10831 89.0316
Spine  0.297712 4.80287 -13.3954
Spine1  1.72144 5.90256 9.09011
Neck  3.97569e-016 0 -2.38542e-015
Head  1.56372 -6.85362 29.6403
R_Clavicle  0.358722 -14.426 1.25912
R_UpperArm  -16.2189 10.0608 4.67339
R_Forearm  19.1772 -19.2491 16.8579
R_Hand  -0.494619 7.84766 -14.9375
L_Clavicle  -0.493523 16.9432 -1.54194
L_UpperArm  -0.165652 22.2307 29.8691
L_Forearm  4.5979 30.3949 36.3279
L_Hand  -0.019731 1.95454 -0.20629
L_Thigh  1.86364 3.53796 7.35012
L_Calf  -5.85362 1.07823 -8.36805
L_Foot  1.68575 8.65786 -1.57524
L_Toe0  0.505156 0.034446 -6.1361
R_Thigh  -4.43643 7.71237 -20.9768
R_Calf  2.04217 8.74463 28.6143
R_Foot  -2.21453 -3.55692 7.85947
R_Toe0  -0.11178 -0.264972 -14.8923
190
root  0.307926 32.8913 65.8055 -81.3524 -4.05685 88.7451
Spine  1.47935 6.75005 -13.2934
Spine1  2.15547 1.0477 6.38049
Neck  3.97569e-016 0 -2.38542e-015
Head  -1.60414 -5.31509 31.3979
R_Clavicle  0.354989 -13.6651 1.28846
R_UpperArm  -14.3243 8.47395 5.33456
R_Forearm  23.1245 -21.4537 18.9453
R_Hand  -0.575943 7.72346 -15.5256
L_Clavicle  -0.482866 16.6598 -1.81522
L_UpperArm  -1.53462 21.4581 31.3716
L_Forearm  1.73738 29.5744 36.1996
L_Hand  -0.0191155 1.42496 -0.237404
L_Thigh  -1.09769 3.21757 8.57636
L_Calf  -3.42244 -0.353374 2.069
L_Foot  1.51094 8.33015 -1.94196
L_Toe0  0.505156 0.034446 -6.1361
R_Thigh  -4.23818 6.93702 -23.4463
R_Calf  2.06106 9.95018 33.6286
R_Foot  -2.28322 -4.38095 6.44845
R_Toe0  -0.332719 -0.255539 -14.9806
